# xmcd
#
# Track frame offsets: 
#        150
#        12321
#        25003
#        36020
#        44262
#        56055
#        72906
#        83962
#        92437
#        100602
#        110129
#        122679
#        134782
#        144677
#
# Disc length: 2121 seconds
#
# Revision: 0
# Processed by: cddbd v1.5.2PL0 Copyright (c) Steve Scherf et al.
# Submitted via: ExactAudioCopy v0.99pb5
#
DISCID=c008470e
DTITLE=Cash, Johnny - Folsom Prison Blues
DYEAR=1900
DGENRE=Country
TTITLE0=Folsom Prison Blues (live)
TTITLE1=Peace In The Valley (live)
TTITLE2=Rock Island Line (live)
TTITLE3=The Wall (live)
TTITLE4=I Still Miss Someone (live)
TTITLE5=Sunday Morning Coming Down (live)
TTITLE6=Big River (live)
TTITLE7=I Got Stripes (live)
TTITLE8=Get Rhythm (live)
TTITLE9=Why Me Lord? (live)
TTITLE10=Long Black Veil (live)
TTITLE11=Jackson (with June Carter) (live)
TTITLE12=If I Were A Carpenter (with June Carter) (live)
TTITLE13=I Walk The Line (live)
EXTD=
EXTT0=
EXTT1=
EXTT2=
EXTT3=
EXTT4=
EXTT5=
EXTT6=
EXTT7=
EXTT8=
EXTT9=
EXTT10=
EXTT11=
EXTT12=
EXTT13=
PLAYORDER=
